<?xml version="1.0" encoding="UTF-8" standalone="no"?>
<!DOCTYPE svg PUBLIC "-//W3C//DTD SVG 1.1//EN" "http://www.w3.org/Graphics/SVG/1.1/DTD/svg11.dtd">
<svg width="100%" height="100%" viewBox="0 0 950 950" version="1.1" xmlns="http://www.w3.org/2000/svg" xmlns:xlink="http://www.w3.org/1999/xlink" xml:space="preserve" xmlns:serif="http://www.serif.com/" style="fill-rule:evenodd;clip-rule:evenodd;stroke-linejoin:round;stroke-miterlimit:2;">
    <g>
        <path d="M618.474,22.186C572.069,7.483 523.679,0 475,0C212.84,0 0,212.84 0,475C0,737.16 212.84,950 475,950C737.16,950 950,737.16 950,475C950,426.321 942.517,377.931 927.814,331.526L881.344,346.25C894.538,387.893 901.253,431.317 901.253,475C901.253,710.255 710.255,901.253 475,901.253C239.745,901.253 48.747,710.255 48.747,475C48.747,239.745 239.745,48.747 475,48.747C518.683,48.747 562.107,55.462 603.75,68.656L618.474,22.186Z" style="fill:white;"/>
        <g transform="matrix(0.770962,0,0,0.770962,108.793,108.793)">
            <path d="M618.474,22.186C572.069,7.483 523.679,0 475,0C212.84,0 0,212.84 0,475C0,737.16 212.84,950 475,950C737.16,950 950,737.16 950,475C950,426.321 942.517,377.931 927.814,331.526L883.72,345.497C896.991,387.384 903.746,431.061 903.746,475C903.746,711.631 711.631,903.746 475,903.746C238.369,903.746 46.254,711.631 46.254,475C46.254,238.369 238.369,46.254 475,46.254C518.939,46.254 562.616,53.009 604.503,66.28L618.474,22.186Z" style="fill:white;"/>
        </g>
        <g transform="matrix(0.56378,0,0,0.56378,207.204,207.204)">
            <path d="M618.474,22.186C572.069,7.483 523.679,0 475,0C212.84,0 0,212.84 0,475C0,737.16 212.84,950 475,950C737.16,950 950,737.16 950,475C950,426.321 942.517,377.931 927.814,331.526L890.827,343.245C904.33,385.86 911.201,430.297 911.201,475C911.201,715.746 715.746,911.201 475,911.201C234.254,911.201 38.799,715.746 38.799,475C38.799,234.254 234.254,38.799 475,38.799C519.703,38.799 564.14,45.67 606.755,59.173L618.474,22.186Z" style="fill:white;"/>
        </g>
        <g transform="matrix(0.373658,0,0,0.373658,297.512,297.512)">
            <path d="M475,0C737.16,0 950,212.84 950,475C950,737.16 737.16,950 475,950C212.84,950 0,737.16 0,475C0,212.84 212.84,0 475,0ZM475,56.997C705.702,56.997 893.003,244.298 893.003,475C893.003,705.702 705.702,893.003 475,893.003C244.298,893.003 56.997,705.702 56.997,475C56.997,244.298 244.298,56.997 475,56.997Z" style="fill:white;"/>
        </g>
        <circle cx="475" cy="475" r="58.702" style="fill:white;"/>
        <g transform="matrix(1.36177,-1.36177,0.707107,0.707107,-306.034,738.346)">
            <path d="M568.371,396.824L585.455,458.35L489.612,366.061L585.455,273.772L568.371,335.298L716.301,335.298L716.301,396.824L568.371,396.824Z" style="fill:white;"/>
        </g>
    </g>
</svg>
