<?xml version="1.0" encoding="UTF-8" standalone="no"?>
<!DOCTYPE svg PUBLIC "-//W3C//DTD SVG 1.1//EN" "http://www.w3.org/Graphics/SVG/1.1/DTD/svg11.dtd">
<svg width="100%" height="100%" viewBox="0 0 950 950" version="1.1" xmlns="http://www.w3.org/2000/svg" xmlns:xlink="http://www.w3.org/1999/xlink" xml:space="preserve" xmlns:serif="http://www.serif.com/" style="fill-rule:evenodd;clip-rule:evenodd;stroke-linejoin:round;stroke-miterlimit:2;">
    <g transform="matrix(5.48975,0,0,5.48975,-11084.7,-397.87)">
        <path d="M2049.44,112.304C2085.48,112.304 2121.51,112.304 2157.61,112.198C2155.78,105.323 2153.95,98.391 2152.21,91.487C2151.06,89.218 2149.05,87.983 2146.34,87.933C2113.99,96.063 2081.72,104.179 2049.44,112.304ZM2035.04,112.326C2059.86,105.396 2084.79,98.489 2109.62,91.502C2107.08,87.129 2105.46,86.7 2102.91,82.308C2101.7,80.9 2100.12,80.443 2098.19,80.9C2077.49,92.685 2055.75,100.496 2035.04,112.326ZM2160.65,177.19C2160.65,171.428 2155.93,166.708 2150.15,166.708C2144.3,166.708 2139.57,171.428 2139.57,177.19C2139.57,183.027 2144.3,187.755 2150.15,187.755C2155.93,187.755 2160.65,183.027 2160.65,177.19ZM2192.22,163.199L2192.22,191.282C2192.22,194.5 2189.51,197.12 2186.27,197.12L2139.31,197.12C2136.07,197.12 2133.37,194.5 2133.37,191.282L2133.37,163.199C2133.37,159.981 2136.07,157.256 2139.31,157.256L2186.27,157.256C2189.51,157.256 2192.22,159.981 2192.22,163.199ZM2029.58,117.142L2174.11,117.142C2177.01,117.142 2179.62,118.352 2181.56,120.181C2183.4,122.09 2184.61,124.727 2184.61,127.594L2184.61,149.732L2139.31,149.732C2135.64,149.732 2132.24,151.21 2129.78,153.675C2127.35,156.107 2125.84,159.542 2125.84,163.199L2125.84,191.282C2125.84,194.939 2127.35,198.336 2129.78,200.783C2132.24,203.241 2135.64,204.73 2139.31,204.73L2184.61,204.73L2184.61,226.857C2184.61,229.754 2183.4,232.361 2181.56,234.189C2179.62,236.116 2177.01,237.271 2174.11,237.271L2029.58,237.271C2026.69,237.271 2024.06,236.116 2022.23,234.189C2020.3,232.361 2019.17,229.754 2019.17,226.857L2019.17,127.594C2019.17,124.727 2020.3,122.09 2022.23,120.181C2024.06,118.352 2026.69,117.142 2029.58,117.142Z" style="fill:white;"/>
    </g>
</svg>
