<?xml version="1.0" encoding="UTF-8" standalone="no"?>
<!DOCTYPE svg PUBLIC "-//W3C//DTD SVG 1.1//EN" "http://www.w3.org/Graphics/SVG/1.1/DTD/svg11.dtd">
<svg width="100%" height="100%" viewBox="0 0 950 950" version="1.1" xmlns="http://www.w3.org/2000/svg" xmlns:xlink="http://www.w3.org/1999/xlink" xml:space="preserve" xmlns:serif="http://www.serif.com/" style="fill-rule:evenodd;clip-rule:evenodd;stroke-linejoin:round;stroke-miterlimit:2;">
    <g transform="matrix(1.69656,0,0,1.69656,-339.741,-99.0151)">
        <g transform="matrix(0.997363,0,0,1,0.528082,0)">
            <path d="M761.691,157.634C761.691,133.308 741.919,113.588 717.529,113.588L244.415,113.588C220.025,113.588 200.253,133.308 200.253,157.634L200.253,157.636C200.253,181.962 220.025,201.682 244.415,201.682L717.529,201.682C741.919,201.682 761.691,181.962 761.691,157.636L761.691,157.634Z" style="fill:rgb(116,142,195);"/>
        </g>
        <g transform="matrix(0.997363,0,0,1,0.528082,185.396)">
            <path d="M761.691,157.634C761.691,133.308 741.919,113.588 717.529,113.588L244.415,113.588C220.025,113.588 200.253,133.308 200.253,157.634L200.253,157.636C200.253,181.962 220.025,201.682 244.415,201.682L717.529,201.682C741.919,201.682 761.691,181.962 761.691,157.636L761.691,157.634Z" style="fill:rgb(209,209,209);"/>
        </g>
        <g transform="matrix(0.662146,0,0,1,67.6565,185.396)">
            <path d="M761.691,157.634C761.691,133.308 731.909,113.588 695.171,113.588L266.773,113.588C230.035,113.588 200.253,133.308 200.253,157.634L200.253,157.636C200.253,181.962 230.035,201.682 266.773,201.682L695.171,201.682C731.909,201.682 761.691,181.962 761.691,157.636L761.691,157.634Z" style="fill:rgb(116,142,195);"/>
        </g>
        <g transform="matrix(0.997363,0,0,1,0.528082,361.412)">
            <path d="M761.691,157.634C761.691,133.308 741.919,113.588 717.529,113.588L244.415,113.588C220.025,113.588 200.253,133.308 200.253,157.634L200.253,157.636C200.253,181.962 220.025,201.682 244.415,201.682L717.529,201.682C741.919,201.682 761.691,181.962 761.691,157.636L761.691,157.634Z" style="fill:rgb(209,209,209);"/>
        </g>
        <g transform="matrix(0.429697,0,0,1,114.205,361.412)">
            <path d="M761.691,157.634C761.691,133.308 715.798,113.588 659.187,113.588L302.757,113.588C246.146,113.588 200.253,133.308 200.253,157.634L200.253,157.636C200.253,181.962 246.146,201.682 302.757,201.682L659.187,201.682C715.798,201.682 761.691,181.962 761.691,157.636L761.691,157.634Z" style="fill:rgb(116,142,195);"/>
        </g>
    </g>
</svg>
